#tb 0: 1/25
0,          0,          0,        1,    38016, 0x1c131302
0,          1,          1,        1,    38016, 0x89dd0c15
0,          2,          2,        1,    38016, 0xaf7700bd
0,          3,          3,        1,    38016, 0x220d1115
0,          4,          4,        1,    38016, 0x76d0354e
0,          5,          5,        1,    38016, 0x9e514b93
0,          6,          6,        1,    38016, 0x20ff5e7c
0,          7,          7,        1,    38016, 0xd9cb7e01
0,          8,          8,        1,    38016, 0x26b7992d
0,          9,          9,        1,    38016, 0xa29dac84
0,         10,         10,        1,    38016, 0x407cb6e8
0,         11,         11,        1,    38016, 0xe82cc064
0,         12,         12,        1,    38016, 0x63ddb80f
0,         13,         13,        1,    38016, 0xec6f93a1
0,         14,         14,        1,    38016, 0x5f217759
0,         15,         15,        1,    38016, 0x341982ba
0,         16,         16,        1,    38016, 0x3f48980c
